<svg width="597" height="263" viewBox="0 0 597 263" fill="none" xmlns="http://www.w3.org/2000/svg">
<path d="M11.1311 192.664V161.272L106.171 33.4H155.131L62.1071 161.272L39.3551 154.648H198.043V192.664H11.1311ZM119.707 235V192.664L121.147 154.648V116.92H165.211V235H119.707ZM298.398 238.456C281.886 238.456 267.102 234.424 254.046 226.36C240.99 218.104 230.718 206.2 223.23 190.648C215.742 175.096 211.998 156.28 211.998 134.2C211.998 112.12 215.742 93.304 223.23 77.752C230.718 62.2 240.99 50.392 254.046 42.328C267.102 34.072 281.886 29.944 298.398 29.944C315.102 29.944 329.886 34.072 342.75 42.328C355.806 50.392 366.078 62.2 373.566 77.752C381.054 93.304 384.798 112.12 384.798 134.2C384.798 156.28 381.054 175.096 373.566 190.648C366.078 206.2 355.806 218.104 342.75 226.36C329.886 234.424 315.102 238.456 298.398 238.456ZM298.398 199C306.27 199 313.086 196.792 318.846 192.376C324.798 187.96 329.406 180.952 332.67 171.352C336.126 161.752 337.854 149.368 337.854 134.2C337.854 119.032 336.126 106.648 332.67 97.048C329.406 87.448 324.798 80.44 318.846 76.024C313.086 71.608 306.27 69.4 298.398 69.4C290.718 69.4 283.902 71.608 277.95 76.024C272.19 80.44 267.582 87.448 264.126 97.048C260.862 106.648 259.23 119.032 259.23 134.2C259.23 149.368 260.862 161.752 264.126 171.352C267.582 180.952 272.19 187.96 277.95 192.376C283.902 196.792 290.718 199 298.398 199ZM405.162 192.664V161.272L500.202 33.4H549.162L456.138 161.272L433.386 154.648H592.074V192.664H405.162ZM513.738 235V192.664L515.178 154.648V116.92H559.242V235H513.738Z" fill="#FF6060"/>
</svg>
